inDegrees=no
num_controls=7
num_derivatives=13
num_iterations=104
num_multipliers=7
num_parameters=0
num_slacks=7
num_states=26
objective=0.446942
objective_accelerations=0.053381
objective_balance=0.002852
objective_effort=0.020095
objective_height=0.365194
objective_ligament=0.005420
solver_duration=1420.415902
status=Solve_Succeeded
success=true
DataType=double
version=3
OpenSimVersion=4.5
endheader
time	/jointset/ground_pelvis/pelvis_tilt/value	/jointset/ground_pelvis/pelvis_tx/value	/jointset/ground_pelvis/pelvis_ty/value	/jointset/hip_l/hip_flexion_l/value	/jointset/hip_l/hip_adduction_l/value	/jointset/hip_l/hip_rotation_l/value	/jointset/back/lumbar_extension/value	/jointset/patellofemoral_l/patellar_flexion_l/value	/jointset/knee_l/knee_flexion_l/value	/jointset/knee_l/knee_adduction_l/value	/jointset/knee_l/knee_rotation_l/value	/jointset/ankle_l/ankle_angle_l/value	/jointset/subtalar_l/subtalar_angle_l/value	/jointset/ground_pelvis/pelvis_tilt/speed	/jointset/ground_pelvis/pelvis_tx/speed	/jointset/ground_pelvis/pelvis_ty/speed	/jointset/hip_l/hip_flexion_l/speed	/jointset/hip_l/hip_adduction_l/speed	/jointset/hip_l/hip_rotation_l/speed	/jointset/back/lumbar_extension/speed	/jointset/patellofemoral_l/patellar_flexion_l/speed	/jointset/knee_l/knee_flexion_l/speed	/jointset/knee_l/knee_adduction_l/speed	/jointset/knee_l/knee_rotation_l/speed	/jointset/ankle_l/ankle_angle_l/speed	/jointset/subtalar_l/subtalar_angle_l/speed	/forceset/tau_hip_flexion_l	/forceset/tau_hip_adduction_l	/forceset/tau_hip_rotation_l	/forceset/tau_knee_flexion_l	/forceset/tau_ankle_angle_l	/forceset/tau_subtalar_angle_l	/forceset/tau_lumbar_extension	lambda_cid13_p0	lambda_cid13_p1	lambda_cid13_p2	lambda_cid13_p3	lambda_cid13_p4	lambda_cid13_p5	lambda_cid14_p0	/jointset/ground_pelvis/pelvis_tilt/accel	/jointset/ground_pelvis/pelvis_tx/accel	/jointset/ground_pelvis/pelvis_ty/accel	/jointset/hip_l/hip_flexion_l/accel	/jointset/hip_l/hip_adduction_l/accel	/jointset/hip_l/hip_rotation_l/accel	/jointset/back/lumbar_extension/accel	/jointset/patellofemoral_l/patellar_flexion_l/accel	/jointset/knee_l/knee_flexion_l/accel	/jointset/knee_l/knee_adduction_l/accel	/jointset/knee_l/knee_rotation_l/accel	/jointset/ankle_l/ankle_angle_l/accel	/jointset/subtalar_l/subtalar_angle_l/accel	gamma_cid13_p0	gamma_cid13_p1	gamma_cid13_p2	gamma_cid13_p3	gamma_cid13_p4	gamma_cid13_p5	gamma_cid14_p0
1	-0.3660012970358178	0.01225956326625816	0.6013886050089053	1.522647393803463	-0.4920835981995451	0.01266822331404451	-0.2617983651174139	1.462971547759968	1.462971547759969	-0.06183249834366548	-0.1745318046729869	0.4362465407879308	0.1036143153912134	-0.0159060928794378	0.009710635748739135	0.00133878714710833	-0.002934253280049173	-0.003437388000817959	0.001148372059941529	-1.009115119461143e-05	-0.001167753371558232	-0.001167753371558142	-0.005192859176865975	2.658280740157674e-06	0.01674704263591295	0.008213850501106236	-0.233539004982023	0.05220987781677348	0.0021138031169377	-0.3655212357197279	-0.06205567107699492	0.01675934078584188	0.2205362230130028	-59.3413272535765	4.214640562385683	-2.267721378007861	14.74401974300507	-634.0918347375999	-58.15292550295398	-0.2834716256169446	1.005865569942525	0.008651673747442998	1.835261575027431	-5.62529778493799	0.1897387917053683	-2.327949449105435	-0.01481567941552139	-5.531889074212591	-5.531889074212578	-0.6690007766791742	-0.02752034134085339	-1.64471852710267	-1.011475760418231	2.808518800254984e-09	1.979832011677996e-08	-1.235178493662435e-08	3.940692854838916e-09	-1.001931240925261e-09	3.608629456721863e-08	4.874407239711941e-10
1.01	-0.3661107607076867	0.01235709267983072	0.6014936031073407	1.522337875751566	-0.492107751240628	0.01256215499550405	-0.2617984366607417	1.4626835749494	1.462683574949357	-0.06191535485102678	-0.1745317999609252	0.4363320262551071	0.1036473452686641	-0.005987515675842894	0.009798013420942065	0.01965647181612048	-0.05895980757917263	-0.001391060191710686	-0.02235766929291793	-3.804688290267412e-06	-0.05642109058847611	-0.05642109058847847	-0.01137688374544735	-1.297266990479839e-06	0.0003485811336380109	-0.001605342164047185	-0.2334403246840281	0.05223513871323438	0.002097441975414087	-0.3653365687619088	-0.06207400493645432	0.01678272165303683	0.2204579327893929	-59.330793593413	4.194950058396532	-2.255796198122189	14.64593050002452	-633.9119846911798	-58.15455114700669	-0.2859224304792098	0.9847217160305112	0.009196498534713002	1.82936570816775	-5.589752987632359	0.2124008786043615	-2.361282699080427	0.008412733070679574	-5.521196215186147	-5.521196215186525	-0.5928736664698754	0.01323837386843202	-1.637630508953617	-0.9667660379139089	-4.570957849537104e-09	6.206226080863356e-09	3.345475712906551e-08	3.585098467372814e-09	-1.038568328674111e-08	6.001412597879287e-08	-1.04258601180262e-08
1.02	-0.3661210650234271	0.01245557900704088	0.6017816468115321	1.521468388409631	-0.4921113767830019	0.01222115601929436	-0.261798432954656	1.461843240732712	1.461843240732625	-0.06206000567797734	-0.1745318204972671	0.4362534829978194	0.1035822582157931	0.003925778346254062	0.009902018476259126	0.03794790829832079	-0.1149281112876098	0.0006681117410351882	-0.0458377594739466	4.958731705324627e-06	-0.1116400345955847	-0.1116400345955895	-0.01755172309491932	-2.39140041701895e-06	-0.01605870225518546	-0.01140953556320109	-0.2333416443860342	0.05226039960969343	0.002081080833900111	-0.3651519018040893	-0.06209233879591396	0.01680610252022825	0.2203796425657824	-59.32838895432544	4.176207355509415	-2.243479072020296	14.58535827374705	-633.8574149086012	-58.13968254649065	-0.2929297851315695	1.004808933642934	0.01197715037026942	1.830011937665064	-5.613847666800735	0.1923076164330885	-2.322759214739277	-0.01432028799727134	-5.525010432250725	-5.525010432250707	-0.6671637328572937	-0.02694805848003293	-1.646482904412374	-1.008475907218328	-1.21484598053375e-08	-8.471341832788318e-09	7.950377572008076e-08	2.908588183266614e-09	-1.987562389691333e-08	8.21792932060488e-08	-2.137423017896861e-08
1.03	-0.3660322337652516	0.01255518686145665	0.602252400866379	1.520039658312078	-0.4920943328748336	0.0116455425350581	-0.2617983505255673	1.460450955601513	1.460450955601436	-0.0622663498160602	-0.1745319009862063	0.4360107268009932	0.1034191830097475	0.0138421468939046	0.01002211725733903	0.05619127708758047	-0.1707926737673155	0.002744907999740283	-0.06927477114573978	1.017413770723702e-05	-0.1668046660085466	-0.1668046660085527	-0.02371366731567588	-1.79423472568922e-05	-0.03250333652812116	-0.02120371311669341	-0.2330794082416287	0.05228972272237594	0.002026833930888292	-0.3646162392449691	-0.06215691315675399	0.01689443268026368	0.2201725589477846	-59.31507202325658	4.110637969593037	-2.204611186317417	14.51693187421626	-633.4688287454167	-58.16711521757304	-0.3046941368131483	0.9852996037116354	0.01241141117025838	1.8197495811849	-5.568978153507695	0.215986282874944	-2.352668157994835	0.007739512645081523	-5.510334119518659	-5.510334119518872	-0.5902087509839405	0.01053366459734457	-1.645075821614554	-0.9646309555718621	-1.972798242752574e-08	-2.315998601049852e-08	1.255552685613544e-07	2.22880324715388e-09	-2.936664806386469e-08	1.04326474064077e-07	-3.232295808908393e-08
1.04	-0.3658441890639226	0.01265607273752186	0.6029052386554442	1.518053039066737	-0.4920563968736213	0.01083585973118492	-0.2617982565308699	1.458507395231444	1.458507395231376	-0.06253421319320955	-0.1745322585291263	0.4356031998348613	0.1031582175729355	0.02376846697697669	0.0101576228061499	0.07436465514198164	-0.2265059408451099	0.004846530349874845	-0.09265162340135305	7.271853556041932e-06	-0.221895082369498	-0.2218950823695056	-0.0298555709083969	-5.780219876424787e-05	-0.04901285611627246	-0.03098758171647286	-0.2328171720972235	0.05231904583505657	0.001972587027885643	-0.3640805766858486	-0.0622214875175944	0.0169827628402954	0.2199654753297868	-59.30992136976593	4.045990146598435	-2.165309774128139	14.48590381519276	-633.2054748317923	-58.17848328104284	-0.3215097068415358	1.006799240727249	0.01505850391645731	1.816013790693362	-5.583588586418494	0.1972728347189904	-2.31072733150329	-0.01594382602789714	-5.510167421848619	-5.510167421848656	-0.6631556072501842	-0.03180983941351222	-1.659459967455504	-1.006414116475745	-2.565014956148922e-08	-3.049945334429994e-08	1.695791042426906e-07	3.84967799860449e-09	-3.821448700734382e-08	1.300115904620548e-07	-4.184391099632119e-08
1.05	-0.3655568329737692	0.0127584126466986	0.6037393956756307	1.515510183849356	-0.4919971951074525	0.009792895275684037	-0.261798211957036	1.456013369767123	1.456013369767129	-0.06286332347211306	-0.1745329014887552	0.4350302441297554	0.1027997026577555	0.03370341525298429	0.01031502573786619	0.09244862620860092	-0.2820250241883773	0.007011814023647998	-0.1159120661527899	3.188915777828331e-06	-0.2768909565327957	-0.2768909565328092	-0.0359543590695105	-4.819779520159834e-05	-0.06558960472798013	-0.04068750252323854	-0.2323442243807992	0.05233474683042994	0.0018851685668496	-0.3633237071609471	-0.06213317481281502	0.0171193629454158	0.2196066520672482	-59.2312422388746	3.933201088575088	-2.101995401260033	14.36825924289876	-632.6362774327692	-58.22451882575408	-0.3438211770841579	0.9869388932515614	0.01678231967065984	1.801860864027751	-5.530060667030857	0.2288279330575793	-2.329356160868321	0.007591372715095186	-5.491428959529711	-5.491428959530566	-0.5814442952795392	0.02078085018826654	-1.658483502883883	-0.9476155920967486	-3.15205243364457e-08	-3.760925890172925e-08	2.135395756377788e-07	5.542448365291442e-09	-4.704222641258944e-08	1.558072673456559e-07	-5.132024593471851e-08
